/* XPM */
static char *_3ce682281fa4f8ce29ce7a8570adacdn9DqEyeM9wIuYAr2[] = {
/* columns rows colors chars-per-pixel */
"50 50 172 2 ",
"   c None",
".  c #0E071B",
"X  c #0F091E",
"o  c #10091E",
"O  c #100A1F",
"+  c #110B20",
"@  c #171023",
"#  c #151229",
"$  c #191830",
"%  c #1B1931",
"&  c #1A1932",
"*  c #1A1A33",
"=  c #1D1D37",
"-  c #231522",
";  c #2B1C28",
":  c #2C1D28",
">  c #371F22",
",  c #391F21",
"<  c #3A1F21",
"1  c #1F2021",
"2  c #1F203B",
"3  c #3C2022",
"4  c #3F2829",
"5  c #232239",
"6  c #21223D",
"7  c #21233F",
"8  c #3E263C",
"9  c #571C27",
"0  c #462527",
"q  c #482424",
"w  c #492524",
"e  c #5A222C",
"r  c #5E242C",
"t  c #592C2B",
"y  c #5D2C28",
"u  c #5F312D",
"i  c #5D2B34",
"p  c #523131",
"a  c #76483E",
"s  c #6F513E",
"d  c #242541",
"f  c #2B2B42",
"g  c #282C4A",
"h  c #2B2E4D",
"j  c #2A2F4E",
"k  c #2B304F",
"l  c #30344F",
"z  c #2C3150",
"x  c #2D3251",
"c  c #383852",
"v  c #333A5A",
"b  c #343B5B",
"n  c #353C5D",
"m  c #373F5F",
"M  c #4A3345",
"N  c #384061",
"B  c #3B4262",
"V  c #3E4362",
"C  c #4E4E5F",
"Z  c #54515D",
"A  c #7B4C40",
"S  c #766454",
"D  c #4D4D61",
"F  c #404A6C",
"G  c #414B6D",
"H  c #424C6E",
"J  c #444E6F",
"K  c #50576F",
"L  c #515975",
"P  c #5B5F74",
"I  c #5D6377",
"U  c #796160",
"Y  c #756C6E",
"T  c #686574",
"R  c #6B6B75",
"E  c #626678",
"W  c #62677A",
"Q  c #62697C",
"!  c #7C7374",
"~  c #7D7474",
"^  c #71737F",
"/  c #72737E",
"(  c #846C6B",
")  c #887877",
"_  c #897877",
"`  c #8D7D7C",
"'  c #8E7C7F",
"]  c #9E856C",
"[  c #B48671",
"{  c #D69263",
"}  c #DD9665",
"|  c #DD986A",
" . c #E39C6B",
".. c #E4A072",
"X. c #E0A578",
"o. c #E3A97B",
"O. c #ECAD7E",
"+. c #777984",
"@. c #74798C",
"#. c #868686",
"$. c gray53",
"%. c #8F8180",
"&. c #888888",
"*. c #989898",
"=. c gray60",
"-. c #9D9D9D",
";. c #9F9F9F",
":. c #B69F97",
">. c #BAAB9D",
",. c #8896AD",
"<. c #959BA4",
"1. c #999FA8",
"2. c #8E9CB4",
"3. c #909DB1",
"4. c #9AA0A9",
"5. c #9BA1A9",
"6. c #9DA2AA",
"7. c #96A1B5",
"8. c #9FA8B7",
"9. c #92A1B9",
"0. c #94A2BA",
"q. c #94A3BB",
"w. c #96A4BC",
"e. c #A5A5A5",
"r. c #BEB0A9",
"t. c #AEB1B5",
"y. c #AFB1B6",
"u. c gray70",
"i. c #C69E87",
"p. c #C09E8D",
"a. c #C2A08F",
"s. c #DAAF95",
"d. c #E9B386",
"f. c #D5B8A8",
"g. c #F5C89D",
"h. c #E3C8B3",
"j. c #A5B0C2",
"k. c #A5B0C3",
"l. c #A7B2C4",
"z. c #ABB4C4",
"x. c #ABB4C6",
"c. c #AFB6C5",
"v. c #A8B4C8",
"b. c #AAB6C9",
"n. c #AEB8C8",
"m. c #AFBACD",
"M. c #B5BAC7",
"N. c #B3BAC9",
"B. c #B4BBCA",
"V. c #B3BECF",
"C. c #BDC4D0",
"Z. c #C1C1C1",
"A. c #C1C1C2",
"S. c #C3C3C3",
"D. c #C1C8D5",
"F. c #CECFD1",
"G. c #CACDD6",
"H. c #CACDD7",
"J. c #C3CAD8",
"K. c #C3CCDA",
"L. c #C5CEDC",
"P. c #C7CFDD",
"I. c #CFD0D1",
"U. c #CED4DF",
"Y. c LightGray",
"T. c gray84",
"R. c #DFDFDF",
"E. c #CFD6E0",
"W. c #D2D8E2",
"Q. c gray99",
"!. c #FCFCFD",
"~. c white",
/* pixels */
"                                                                                                    ",
"                                                                                                    ",
"                                                                                                    ",
"                                                                                                    ",
"                                                                                                    ",
"                                                                                                    ",
"                                                                                                    ",
"                                                                                                    ",
"                                        y.C.                                                        ",
"                                        6.V.k.C E 3.z.C.                                            ",
"                                          4.D P 2.m.L.L.D.                                          ",
"                                            <.2.9.a.......  y.                                      ",
"                                          y.k.9.p.:.M.h.r.c.                                        ",
"                                        y.l.0.p. .s 1 ] S                                           ",
"                                      y.J.b.9.7.i.} { d.o.                                          ",
"                                    y.J.b.0.9.9.N.s.f.G.G.                                          ",
"                                    y.L.b.U.F.8.0.B.z.w.w.n.                                        ",
"                                  y.J.b.E.!.!.I.8.q.0.m.K.b.                                        ",
"                                  y.L.b.W.!.!.!.I.8.9.0.V.b.                                        ",
"                                y.J.b.0.W.!.!.T.R.I.8.9.0.0.                                        ",
"                                y.L.b.U.!.!.T.-.e.R.I.8.9.K                                         ",
"                                6.w.0.W.!.!.Y.*.#.e.-.Q B d                                         ",
"                                4.9.  Z.!.T.-.#.-.*.E J b 6 5                                       ",
"                                  1.  Z.!.Y.*.-.u.*.I n k 6 &                                       ",
"                                      Z.!.Y.*.#.&.E J b j 6 &                                       ",
"                                      Z.!.Y.@.f @ l n k j 6 &                                       ",
"                                        Z.Y.Z O . O + O O X # 5                                     ",
"                                        ` p - . = g g 2 & & ; >                                     ",
"                                        _ q T ,.L j j 6 & & : ,                                     ",
"                                        >.X.| U x j j 6 & & & a                                     ",
"                                      ` [ g.O.( F v 6 & & & & A                                     ",
"                                    ` e r M c V H b 6 & & & &                                       ",
"                                  ` e 9 8 j n F H b 6 & & & &                                       ",
"                                ` e 9 8 j j B H n k 6 & & & &                                       ",
"                            ` i e 9   ^ j j B H b 6 & & & & &                                       ",
"                          ` e 9       +.j n F H b 6 & & & &                                         ",
"                        ` e           +.j B H n k 6 & & & &                                         ",
"                                        ^ k x k   R & & &                                           ",
"                                        _ t 0       Y >                                             ",
"                                        _ y q       ! ,                                             ",
"                                      %.u q         ! , 4                                           ",
"                                      ~ 3 ,         ! , , 4                                         ",
"                                                                                                    ",
"                                                                                                    ",
"                                                                                                    ",
"                                                                                                    ",
"                                                                                                    ",
"                                                                                                    ",
"                                                                                                    ",
"                                                                                                    "
};
