/* XPM */
static char *_0b60bed10f7435de3dde39df60b5dc5wrGxTwb0EviIt6hl[] = {
/* columns rows colors chars-per-pixel */
"50 50 99 2 ",
"   c None",
".  c #0E071B",
"X  c #0E071C",
"o  c #0F081C",
"O  c #130919",
"+  c #110A1E",
"@  c #171615",
"#  c #181615",
"$  c #181716",
"%  c #1A1932",
"&  c #1B1932",
"*  c #1B1A32",
"=  c #1B1A33",
"-  c #1E1D35",
";  c #1F1E36",
":  c #381F21",
">  c #391F21",
",  c #392022",
"<  c #3A2022",
"1  c #3C2122",
"2  c #3C2123",
"3  c #3D2223",
"4  c #3C2325",
"5  c #3C2425",
"6  c #571C27",
"7  c #561C28",
"8  c #59202A",
"9  c #58202B",
"0  c #59212B",
"q  c #5C2C28",
"w  c #5D2C28",
"e  c #602F2A",
"r  c #292E4D",
"t  c #2A2E4D",
"y  c #2A2F4D",
"u  c #2B2F4D",
"i  c #2A2F4E",
"p  c #2A304F",
"a  c #2B304F",
"s  c #2D3250",
"d  c #2E3350",
"f  c #414A6C",
"g  c #414B6C",
"h  c #414B6D",
"j  c #424B6D",
"k  c #424C6E",
"l  c #BC6D4A",
"z  c #BF6F4A",
"x  c #BC704D",
"c  c #E29968",
"v  c #E59B69",
"b  c #E69C69",
"n  c #E49C6B",
"m  c #E59D6B",
"M  c #E69D6A",
"N  c #E59D6C",
"B  c #828283",
"V  c #838383",
"C  c #838484",
"Z  c #848485",
"A  c gray52",
"S  c #868686",
"D  c #8F9EB6",
"F  c #909EB6",
"G  c #919EB6",
"H  c #919FB6",
"J  c #909FB7",
"K  c #909FB8",
"L  c #91A0B6",
"P  c #91A0B7",
"I  c #94A1B7",
"U  c #91A0B8",
"Y  c #92A1B9",
"T  c #93A1B9",
"R  c #93A2BA",
"E  c #94A3BA",
"W  c #B1B1B1",
"Q  c #B2B2B2",
"!  c gray70",
"~  c #B4B4B4",
"^  c gray71",
"/  c #F3C69C",
"(  c #F3C79D",
")  c #F5C99E",
"_  c #F6CA9F",
"`  c #F5CAA0",
"'  c #C3CAD8",
"]  c #C4CBD9",
"[  c #C7CDDA",
"{  c #C5CDDC",
"}  c #C5CEDC",
"|  c #C6CEDC",
" . c #C7CFDD",
".. c #C8CEDB",
"X. c gray98",
"o. c #FCFBFB",
"O. c #FDFDFD",
"+. c #FEFEFE",
"@. c white",
/* pixels */
"                                                                                                    ",
"                                                                                                    ",
"                                                                                                    ",
"                                                                                                    ",
"                                                                                                    ",
"                                                                                                    ",
"                                                                                                    ",
"                                                                                                    ",
"                                                                                                    ",
"                                                                                                    ",
"                                             . .                                                    ",
"                                            Y ' O Y Y  . .                                          ",
"                                            F O Y Y ......[                                         ",
"                                              Y Y I M M M M   ]                                     ",
"                                             .Y I M F ] _ F ]                                       ",
"                                         . .Y Y M v @ $ _ $                                         ",
"                                     . . .L Y Y Y M M M ` M                                         ",
"                                   . . .L   E Y Y  .N  . . .                                        ",
"                                 . . .Y     @.~ Y Y  .Y Y Y  .                                      ",
"                               . . . .L   @.@.@.~ Y Y Y  . .Y                                       ",
"                               . . .L   @.@.@.@.@.~ Y Y Y  .Y                                       ",
"                             . . .L     @.@.@.~ ! @.~ Y Y Y Y F                                     ",
"                             . .L       @.@.@.! A ! @.! K F D =                                     ",
"                            L Y       @.@.@.~ A A A ! C k i = =                                     ",
"                              L       @.@.@.! A A ! C k g i = = =                                   ",
"                                      @.@.~   A B B k g i i = = =                                   ",
"                                      X.@.~   g . . g i i i = = =                                   ",
"                                        o.! Y . . o o o . . X = = =                                 ",
"                                        w , Y + + i i i = = = = : ,                                 ",
"                                        e 3 I F F i i i = = = : 3 3                                 ",
"                                        _ M v 7 p p i i = = = = l l                                 ",
"                                        / / c p k k i = = = = = l x                                 ",
"                                      6 6 7 i k k g i = = = = = =                                   ",
"                                    6 6 7 i i k k i i = = = = = =                                   ",
"                                  6 6 8 i i p k k i = = = = = = -                                   ",
"                              6 6 8 8   i i k k k i = = = = = =                                     ",
"                            6 8 8       i i g g g i = = = = = -                                     ",
"                          8 8           s i i i i s = = = = -                                       ",
"                                          w w : s   - : : -                                         ",
"                                          w w 5       : ,                                           ",
"                                        w w ,         : : ,                                         ",
"                                        4 4 5         4 4 4 5                                       ",
"                                                                                                    ",
"                                                                                                    ",
"                                                                                                    ",
"                                                                                                    ",
"                                                                                                    ",
"                                                                                                    ",
"                                                                                                    ",
"                                                                                                    "
};
