/* XPM */
static char *_402a8084a734f6899ac7e31de3b1bd0PlwUuyHOWBSVPmq3[] = {
/* columns rows colors chars-per-pixel */
"50 50 166 2 ",
"   c None",
".  c #2D2D40",
"X  c #444758",
"o  c #746665",
"O  c #746765",
"+  c #A63C0A",
"@  c #AA400E",
"#  c #A84111",
"$  c #A84112",
"%  c #AB4B1D",
"&  c #AF582E",
"*  c #FF7D6A",
"=  c #FF7F6C",
"-  c #BD886C",
";  c #C09177",
":  c #FE816F",
">  c #FE8270",
",  c #6B7481",
"<  c #1E87C5",
"1  c #258BC7",
"2  c #2A8EC8",
"3  c #2B8FC8",
"4  c #2C8FC9",
"5  c #2D90C9",
"6  c #2F91CA",
"7  c #2E92CC",
"8  c #3091CA",
"9  c #3092CA",
"0  c #3192CA",
"q  c #3293CA",
"w  c #3293CB",
"e  c #3393CB",
"r  c #3493CA",
"t  c #3394CB",
"y  c #3494CA",
"u  c #3494CB",
"i  c #3295CD",
"p  c #3395CD",
"a  c #3796CC",
"s  c #3896CC",
"d  c #3997CD",
"f  c #3B98CD",
"g  c #429CCF",
"h  c #459ED0",
"j  c #55A7D4",
"k  c #60AED8",
"l  c #63B0D8",
"z  c #6FB7DC",
"x  c #6FB8DE",
"c  c #71B9DD",
"v  c #75BBDE",
"b  c #79BDDF",
"n  c #7ABDDF",
"m  c #7ABEDF",
"M  c #7CBFE0",
"N  c #95A5AF",
"B  c #9AAAB4",
"V  c #9FB0B9",
"C  c #A3B5BD",
"Z  c #F99486",
"A  c #D780BD",
"S  c #D784BF",
"D  c #D885BF",
"F  c #F3ACA1",
"G  c #F2B0A6",
"H  c #EFBAB2",
"J  c #ECC4BE",
"K  c #D893C6",
"L  c #DAACD4",
"P  c #DAAED5",
"I  c #DAB7D9",
"U  c #DAB9DA",
"Y  c #AFC2CA",
"T  c #B2C6CD",
"R  c #B1C8CE",
"E  c #82C2E1",
"W  c #8DC9E5",
"Q  c #93CDE7",
"!  c #9AD0E8",
"~  c #9BD1E9",
"^  c #9FD4EA",
"/  c #A6D8EC",
"(  c #A9DAED",
")  c #B6E1F1",
"_  c #BAE4F2",
"`  c #D3D2CA",
"'  c #D3D5CE",
"]  c #E5DFDD",
"[  c #DDC5E2",
"{  c #DCCCE4",
"}  c #DCD0E6",
"|  c #DCD0E7",
" . c #DCD1E7",
".. c #DCD5E9",
"X. c #DCDCED",
"o. c #DCDDED",
"O. c #E1D1EA",
"+. c #E0DBEC",
"@. c #CCE5E9",
"#. c #CDE9EB",
"$. c #DDE0EF",
"%. c #C3E9F4",
"&. c #C6EBF5",
"*. c #DDE7F3",
"=. c #D5EEF2",
"-. c #DBF1F2",
";. c #DDF5F7",
":. c #DFF4F6",
">. c #D0F1F8",
",. c #D0F3F9",
"<. c #D2F2F8",
"1. c #D2F2F9",
"2. c #D6F7FE",
"3. c #DDF3F9",
"4. c #DEF2F8",
"5. c #DAF5F8",
"6. c #D9F6FB",
"7. c #DAF6FB",
"8. c #DAF7FB",
"9. c #DBF7FB",
"0. c #DDF6F9",
"q. c #DDF6FA",
"w. c #DEF6FA",
"e. c #DFF7FA",
"r. c #DEF7FB",
"t. c #DBF8FB",
"y. c #DCF8FB",
"u. c #D9F8FC",
"i. c #DCF8FC",
"p. c #DDF9FC",
"a. c #DEF8FC",
"s. c #DEF9FC",
"d. c #DFF9FC",
"f. c #DEFAFC",
"g. c #DFFAFC",
"h. c #DEFAFD",
"j. c #DFFBFD",
"k. c #DDFBFF",
"l. c #DFFBFE",
"z. c #DEFCFD",
"x. c #DDFCFF",
"c. c #DDFDFF",
"v. c #DEFCFE",
"b. c #DEFDFE",
"n. c #DFFDFF",
"m. c #DDFFFF",
"M. c #DEFEFF",
"N. c #DEFFFF",
"B. c #E4E2E1",
"V. c #E0EBF6",
"C. c #E0FAFC",
"Z. c #E0FAFD",
"A. c #E1FBFD",
"S. c #E2FBFD",
"D. c #E2FCFD",
"F. c #E3FCFD",
"G. c #E1FCFF",
"H. c #E0FDFF",
"J. c #E3FCFE",
"K. c #E2FDFF",
"L. c LightCyan",
"P. c #E2FEFF",
"I. c #E3FFFF",
"U. c #E4FFFF",
"Y. c #E5FFFF",
"T. c #E7FFFF",
/* pixels */
"                                                                                                    ",
"                                                                                                    ",
"                                                                                                    ",
"                                                                                                    ",
"                                                                                                    ",
"                                                                                                    ",
"                                                                                                    ",
"                                                                                                    ",
"                                                                                                    ",
"                                                                                                    ",
"                                                                                                    ",
"                                                                                                    ",
"                                                                                                    ",
"                                                                                                    ",
"                                                                                                    ",
"                # #             > > >                                                               ",
"                # # +           > > >                                                               ",
"                  # % &       > > >                                                                 ",
"                  # ; ' :.x.J > * =                                                                 ",
"                  - ` H.s.s.] G F F                                                                 ",
"                  -.r.s.s.s.r.:.:.:.                                                                ",
"            u 2 x 2.H.s.s.H.U.H.x.x.x.x.x.s.                                                        ",
"            u 5 k ,.H.s.6.Y N V @.V.| { X.s.                                                        ",
"              2 l ,.Z.H.=., . X R O.D D K                                                           ",
"                W 6.s.s.6.T B C #.[ A I $.s.s.              s.s.s.s.s.                              ",
"                  s.s.s.s.H.U.U.H...P *.x.s.s.s.          s.s.s.s.s.s.s.                            ",
"                  s.s.s.s.s.s.s.s.r.4.r.s.s.s.s.s.s.s.s.s.s.s.s.s.s.s.s.s.s.                        ",
"                  x.x.x.s.s.s.s.s.s.x.s.s.s.s.s.s.s.s.s.s.s.s.s.s.s.s.s.s.s.s.                      ",
"                  | | X.r.Z.Z.s.s.s.s.s.s.s.s.s.s.s.s.s.s.s.s.s.s.s.s.s.s.s.s.s.                    ",
"                  D S P 4.u.6.s.s.s.s.s.s.s.s.s.s.s.s.s.s.s.s.s.s.s.s.s.s.s.s.s.s.                  ",
"                    U +.r.Q M   Z.s.s.s.s.s.s.s.s.s.s.s.s.s.s.s.s.s.s.s.s.s.s.s.s.                  ",
"                      ,.( j <   H.s.s.s.s.s.s.s.s.s.s.s.s.s.s.s.s.s.s.s.s.s.s.s.s.                  ",
"                        g s 4   Z.s.s.s.s.s.s.s.s.s.s.s.s.s.s.s.s.s.s.s.s.s.s.s.s.s.s.              ",
"                        5 q     Z.s.s.s.s.s.s.s.s.s.s.s.s.s.s.s.s.s.s.s.s.s.s.s.  s.s.s.            ",
"                        u       s.s.s.s.s.s.s.s.s.s.s.s.s.Z.Z.Z.s.s.s.s.s.s.s.s.  s.s.s.            ",
"                                    s.s.s.s.s.s.s.s.s.s.s.y.6.6.s.s.s.s.s.s.s.s.                    ",
"                                      s.s.s.s.s.s.s.s.s.s./ v b ) Z.s.s.s.s.s.                      ",
"                                      Z.Z.Z.s.s.s.s.s.Z.s.z 2 t ! H.s.s.s.s.                        ",
"                                      6.6.t.s.s.s.s.s.Z.  s q a ! H.s.s.s.s.                        ",
"                                      b b E _ H.s.s.s.Z.  1 q s ^ U.s.s.s.s.s.                      ",
"                                      q q 5     s.s.s.Z.    q a E &.6.s.s.s.s.s.                    ",
"                                        q q     s.s.s.        u f c ,.Z.s.s.s.s.                    ",
"                                          q     s.s.            4 h %.H.s.s.s.s.                    ",
"                                          i     s.s.            i 7     s.s.s.s.                    ",
"                                          u       s.s.          u r         s.s.                    ",
"                                          o       s.s.          o o         x.x.                    ",
"                                          @       s.s.          @ @         B.B.                    ",
"                                                  s.s.                      Z Z                     ",
"                                                  H H                                               ",
"                                                  : :                                               "
};
