/* XPM */
static char *_1d17d36fd754b9498cede09b249f008[] = {
/* columns rows colors chars-per-pixel */
"50 50 197 2 ",
"   c None",
".  c #0E071B",
"X  c #0F091D",
"o  c #110C21",
"O  c #171328",
"+  c #16132B",
"@  c #17142C",
"#  c #18162F",
"$  c #191730",
"%  c #191831",
"&  c #1A1932",
"*  c #1B1A33",
"=  c #1D1A30",
"-  c #1C1A32",
";  c #1F1E36",
":  c #211D31",
">  c #3B2021",
",  c #3C2022",
"<  c #35232D",
"1  c #3F282A",
"2  c #3E3038",
"3  c #571C27",
"4  c #531E2B",
"5  c #432323",
"6  c #452323",
"7  c #482424",
"8  c #4E2725",
"9  c #562C2D",
"0  c #5B2B28",
"q  c #4B2132",
"w  c #492233",
"e  c #4F2A39",
"r  c #4E3B3C",
"t  c #602F38",
"y  c #242642",
"u  c #2B2D4A",
"i  c #2C2D48",
"p  c #2E2D4A",
"a  c #2A2F4E",
"s  c #362A43",
"d  c #382942",
"f  c #33354F",
"g  c #2C3251",
"h  c #323653",
"j  c #313757",
"k  c #3B3E56",
"l  c #373F5F",
"z  c #48394D",
"x  c #643941",
"c  c #3D425B",
"v  c #384061",
"b  c #3A4364",
"n  c #3F4869",
"m  c #544D4D",
"M  c #464655",
"N  c #4A4D52",
"B  c #45475D",
"V  c #484959",
"C  c #48485B",
"Z  c #655758",
"A  c #66575D",
"S  c #695C5E",
"D  c #74555B",
"F  c #414B6D",
"G  c #424C6E",
"H  c #4A516E",
"J  c #4E546C",
"K  c #545360",
"L  c #575763",
"P  c #645963",
"I  c #7A5F64",
"U  c #6B6168",
"Y  c #70656A",
"T  c #7C6869",
"R  c #696470",
"E  c #62677C",
"W  c #7A7777",
"Q  c #7E7575",
"!  c #A2704D",
"~  c #AC7651",
"^  c #AF7452",
"/  c #B27957",
"(  c #826769",
")  c #91706D",
"_  c #887477",
"`  c #8B837E",
"'  c #B3876F",
"]  c #DE9C71",
"[  c #E69C69",
"{  c #E29C6D",
"}  c #596483",
"|  c #6F7587",
" . c #787A85",
".. c #7F8396",
"X. c gray52",
"o. c gray53",
"O. c #908E8E",
"+. c #838493",
"@. c #8F8A92",
"#. c gray58",
"$. c gray60",
"%. c gray61",
"&. c #B19F9B",
"*. c #B6A39D",
"=. c #8D98AE",
"-. c #9095A6",
";. c #9A97A1",
":. c #9299A7",
">. c #9C9AA4",
",. c #909BAC",
"<. c #999FA9",
"1. c #8C9AB2",
"2. c #909CB0",
"3. c #919EB4",
"4. c #929FB4",
"5. c #9DA0A9",
"6. c #9CA1A9",
"7. c #9EA4AF",
"8. c #92A1B9",
"9. c #95A3B9",
"0. c #94A3BB",
"q. c #97A4B8",
"w. c #99A7BE",
"e. c #9DA8B9",
"r. c #A9A0A3",
"t. c #A0A7B5",
"y. c #A6A8B5",
"u. c #A9AEB6",
"i. c #A1ABBC",
"p. c #AEB1B5",
"a. c #ABB0B8",
"s. c #ADB1B8",
"d. c #ADB1B9",
"f. c #AEB1B8",
"g. c #AFB3BA",
"h. c #ADB0BE",
"j. c #B3B1B2",
"k. c #B7B7B7",
"l. c #B2B6BD",
"z. c #CB9E83",
"x. c #C39E8A",
"c. c #DCAC8E",
"v. c #D4AD96",
"b. c #DEB994",
"n. c #E0B28E",
"m. c #EABD94",
"M. c #ECBC94",
"N. c #F2BD90",
"B. c #D4BAAD",
"V. c #CCBAB4",
"C. c #C8BAB8",
"Z. c #D1BFB8",
"A. c #F6CA9F",
"S. c #A1AEC3",
"D. c #A3B0C5",
"F. c #A6B2C6",
"G. c #A8B0C0",
"H. c #A9B2C3",
"J. c #AFB3C1",
"K. c #AFB7C4",
"L. c #A8B4C8",
"P. c #B1BCCE",
"I. c #B5BFCF",
"U. c #B3BED0",
"Y. c #B6C0D1",
"T. c #BAC3D3",
"R. c #BFC7D5",
"E. c #C1C1C1",
"W. c gray78",
"Q. c gray80",
"!. c #D5CBC7",
"~. c #C1C7D5",
"^. c #C1C8D5",
"/. c #C0C9D8",
"(. c #C2CBDA",
"). c #C5CDDB",
"_. c #C6CEDC",
"`. c #C7CFDD",
"'. c #C8D0DE",
"]. c LightGray",
"[. c #D0D5DE",
"{. c #D4DAE4",
"}. c #D6DCE6",
"|. c #D6DCE7",
" X c #D7DCE7",
".X c #D9DEE8",
"XX c #DCE1EA",
"oX c #DEE3EB",
"OX c #E2E2E4",
"+X c #E7E7E7",
"@X c #E9E9E9",
"#X c #EAEAEA",
"$X c #F4F4F4",
"%X c #F5F6F7",
"&X c #F6F7F8",
"*X c #FAFAFC",
"=X c white",
/* pixels */
"                                                                                                    ",
"                                                                                                    ",
"                                                                                                    ",
"                                                                                                    ",
"                                                                                                    ",
"                                                                                                    ",
"                                                                                                    ",
"                                                                                                    ",
"                                                                                                    ",
"                                                                                                    ",
"                                            E.W.W.W.W.W.W.W.W.W.W.W.W.W.W.W.W.W.W.W.W.W.W.W.        ",
"Q.W.W.W.W.W.W.W.W.W.W.W.W.W.W.W.W.W.W.W.W.W.$X=X=X=X=X=X=X=X=X=X=X=X=X=X=X=X=X=X=X=X=X=X=X=XQ.      ",
"@X=X=X=X=X=X=X=X=X=X=X=X=X=X=X=X=X=X=X=X=X=X=X=X=X=X=X=X=X=X=X=X=X=X=X=X=X=X=X=X=X=X=X=X=X=X=X      ",
"  @X=X=X=X=X=X=X=X=X=X=X=X=X=X=X=X=X=X=X=X=X=X=X=X=X=X=X=X=X=X=X=X=X=X=X=X=X=X=X=X=X=X=X=X=X=XQ.    ",
"      @X=X=X=X=X=X=X=X=X=X=X=X=X=X=X=X=X=X=X=X=X=X=X=X=X=X=X=X=X=X=X=X=X=X=X=X=X=X=X=X=X=X=X=X=X    ",
"          @X=X=X=X=X=X=X=X=X=X=X=X=X=X=X=X=X=X=X=X=X=X=X=X=X=X=X=X          @X=X=X=X=X=X=X=X=X=XQ.  ",
"              @X=X=X=X=X=XoX}..X.X*X=X=X=X=X=XoX.XT.R G.I.{..X                @X=X=X=X=X=X=X=X=X=X  ",
"                  @X=X=XoX'.`.`.`.}.}.        i.D.C E 1.P.).`.d.                @X=X=X=X=X=X=X=X=XQ.",
"                    K.{.'.`.`.`.`.`.`.d.d.        | 1.8.S.v.c.c.  p.              @X=X=X=X=X=X=X=X=X",
"                  6.3.(.`.`.`.`.`.`.`.`.`.d.d.    ,.8.x.z.&.V.M.j.                  @X=X=X=X=X=X=X=X",
"                      e.D.(.`.`.`.`.`.`.`.`.`.d.<.3.x.{ [ m N b.                      @X=X=X=X=X=X=X",
"                          e.D.D.(.`.`.`.L.D.D.D.9.8.r.] [ ~ ! m.                        @X=X=X=X=X=X",
"                                e.D.D.D.J H } 7.u.9.8.r.] [ B.!.                          @X=X=X=X=X",
"                                        k l J.OX+Xl.9.8.C.Z.G.D.a.                          @X=X=X=X",
"                                       .h h.&X=X=X@Xl.9.S.D.U.Y.F.                            @X=X=X",
"              _ I                    .h y.$X=X=X=X].k.q.8.8.S.(.w.                        E.W.$X=X=X",
"              x 3 D                .h y.$X=X].Q.Q.k.$.3.8.8.8.S.                      E.W.$X=X=X=X=X",
"                t 3 D I          .h y.$X=X].%.#.#.#.    2.8.                      E.W.$X=X=X=X=X=X=X",
"                  t 3 3 D I    .h a ( ) T O.X.X.X.                            p.d.[.*X=X=X=X=X      ",
"                    t 3 3 3 D e p a 9 7 > W X.X.                          p.d.^.`.`.}..X.X          ",
"                        t 3 3 3 w w ' / ~ ` X.M L                     p.d.^.`.`.`.`.`.              ",
"                          z 4 3 3 3 n.N.*.:.C ; & K               p.d.^.`.`.`.`.                    ",
"                         .h s d 4 3 n.A.t.B + $ & & K         p.d.^.`.`.`.`.                        ",
"                       .h a a a s d P U =.: . o $ & &     p.d.^.`.`.`.                              ",
"                     .h a a a v b b b g c = X . # & & 6.d.^.`.`.`.                                  ",
"                   .h a a v b F G G G y & & @ + & ..-.R.`.`.                                        ",
"                Q f a v b F G G G       2 = & ..-.R.`.`.                                            ",
"              Q 1 < u n G G G         Q 1 +.-.R.`.                                                  ",
"            Q 1 8 , p j             Q @.;.~.`.                                                      ",
"            r 8 0                 p.>.~.`.                                                          ",
"            r 5 6 Z           p.d.^.  Y A S                                                         ",
"                          p.d.^.                                                                    ",
"                                                                                                    ",
"                                                                                                    ",
"                                                                                                    ",
"                                                                                                    ",
"                                                                                                    ",
"                                                                                                    ",
"                                                                                                    ",
"                                                                                                    "
};
