/* XPM */
static char *fc2975f6126948918fb50dd2f626fe5f[] = {
/* columns rows colors chars-per-pixel */
"50 50 169 2 ",
"   c None",
".  c #25141E",
"X  c #171624",
"o  c #1B1C2A",
"O  c #19182D",
"+  c #1A1932",
"@  c #1B1A33",
"#  c #2D1D27",
"$  c #241A2B",
"%  c #231B2D",
"&  c #281C2A",
"*  c #331E24",
"=  c #391F21",
"-  c #1E202E",
";  c #1F203B",
":  c #36222A",
">  c #202239",
",  c #21223D",
"<  c #432323",
"1  c #452323",
"2  c #4C2625",
"3  c #572A27",
"4  c #703233",
"5  c #75533B",
"6  c #242743",
"7  c #2E2A41",
"8  c #272B49",
"9  c #2B2E4C",
"0  c #2A2F4E",
"q  c #362D40",
"w  c #392941",
"e  c #2C304E",
"r  c #3C3C47",
"t  c #32344D",
"y  c #3E3D4F",
"u  c #313757",
"i  c #373C56",
"p  c #3B3A52",
"a  c #323959",
"s  c #333A5A",
"d  c #353C5D",
"f  c #363D5D",
"g  c #394162",
"h  c #3A4263",
"j  c #3E4768",
"k  c #42424B",
"l  c #534243",
"z  c #584748",
"x  c #444353",
"c  c #4F4955",
"v  c #654145",
"b  c #7A514C",
"n  c #625657",
"m  c #695B5F",
"M  c #494C62",
"N  c #424C6E",
"B  c #575763",
"V  c #525468",
"C  c #5A627A",
"Z  c #6F6364",
"A  c #7A6766",
"S  c #7E6967",
"D  c #626873",
"F  c #6A6973",
"G  c #6F6A70",
"H  c #6B6D7C",
"J  c #7C7377",
"K  c #8F5449",
"L  c #955749",
"P  c #AA5E43",
"I  c #AA7A5E",
"U  c #B9795C",
"Y  c #896162",
"T  c #A57F60",
"R  c #A47C6E",
"E  c #BC8158",
"W  c #8D8077",
"Q  c #A8866F",
"!  c #B0856A",
"~  c #A48A7B",
"^  c #C69D79",
"/  c #E1A57D",
"(  c #646A80",
")  c #676D82",
"_  c #7C6F82",
"`  c #7E7E85",
"'  c #747B8F",
"]  c #6F7992",
"[  c #877F80",
"{  c #7A8089",
"}  c #74809A",
"|  c #858185",
" . c #8D8281",
".. c #81828A",
"X. c #83848A",
"o. c #83848D",
"O. c #83868F",
"+. c #818590",
"@. c #898D9A",
"#. c #959595",
"$. c #A4978B",
"%. c #AE9F99",
"&. c #BB9F92",
"*. c #BB9D97",
"=. c #B1959B",
"-. c #BAA28C",
";. c #B4A69E",
":. c #8D95A8",
">. c #949BA7",
",. c #989DA7",
"<. c #909AAB",
"1. c #999FA8",
"2. c #9E9DAE",
"3. c #9BA2AC",
"4. c #9FA7B5",
"5. c #92A1B9",
"6. c #9CA7B8",
"7. c #9BA9BF",
"8. c gray65",
"9. c #A3A0A9",
"0. c #A1A0AB",
"q. c #A0A5AE",
"w. c #A4A8AF",
"e. c #ACA8AF",
"r. c #B3A7A1",
"t. c #A7ACB3",
"y. c #ABA9B2",
"u. c #ADAFB3",
"i. c #A6ADB8",
"p. c #ADB1B7",
"a. c #ABB1BB",
"s. c #ABB2BD",
"d. c #AEB3BD",
"f. c #BEB7BB",
"g. c #BCBCBC",
"h. c #CE9D80",
"j. c #CA9E84",
"k. c #DCAA87",
"l. c #DDAB8B",
"z. c #C8A694",
"x. c #F1BB8D",
"c. c #E0B394",
"v. c #D5B7A7",
"b. c #DBBDAA",
"n. c #C8B6B0",
"m. c #DDC3B1",
"M. c #9DAAC0",
"N. c #A4B0C5",
"B. c #ABB6CA",
"V. c #ACB8CB",
"C. c #AEBACC",
"Z. c #B2B7C0",
"A. c #B9BBC1",
"S. c #B2BCCD",
"D. c #B3BECF",
"F. c #B5C0D1",
"G. c #B7C1D1",
"H. c #B8C2D3",
"J. c #BBC4D3",
"K. c #BEC7D7",
"L. c #C5C5C5",
"P. c #C6C6C6",
"I. c #C7CFDD",
"U. c #D0D3D8",
"Y. c gainsboro",
"T. c #DCDFE4",
"R. c #DBE0E8",
"E. c gray95",
"W. c white",
/* pixels */
"                                                                                                    ",
"                                                                                                    ",
"                                                                                                    ",
"                                                                                                    ",
"                                                                                                    ",
"                                                                                                    ",
"                                                                                                    ",
"                                                                                                    ",
"                                                                                                    ",
"                                                                                                    ",
"                                                                                                    ",
"                                                                                                    ",
"                                              H.a.                                                  ",
"                                              3.:.V ) 7.F.I.Z.                                      ",
"                                                +.) 5.y.v.v.v.r.                                    ",
"                                                q.5.0.&.z.c.k.%.                                    ",
"                                              t.N.0.j.! D $.-.{                                     ",
"                                            p.D.5.0.h.E 5 T ^ W                                     ",
"                                          p.K.N.5.5.e.l./ b.m.;.                                    ",
"                                          I.D.<.,.6.M.f.n.C.C.i.                                    ",
"                                        p.K.4.u.g.U.D.M.N.7.B.V.w.                                  ",
"                                        I.s.u.P.W.W.T.6.5.M.H.D.1.                                  ",
"                                      p.K.d.P.W.E.Y.A.' } 5.M.N.1.                                  ",
"                                      I.D.J.W.E.P.8.@.f i ] 5.<.                                    ",
"                                      C.F.R.E.P.#.X.( e + t C O.                                    ",
"                                      5.2.=.*.~ n c 9 ; + + y                                       ",
"                                      >._ 4 U I = # O X X r                                         ",
"                                        Y K x.Q . $ > - o k                                         ",
"                                        P L R m + , 9 8 ; + x                                       ",
"                                      J b v w 9 9 9 8 ; + + + x                                     ",
"                                    H f f u 9 9 9 9 6 + + + + + x                                   ",
"                                    s N N g 9 9 9 8 ; + + + + + + F                                 ",
"                                  H g N j s 9 9 M ..B + + + + + + F                                 ",
"                                  s N j s 9 M O.      ` B + + + y                                   ",
"                                  q p s 9 M               % + y                                     ",
"                                A < : 7 M               Z * & G                                     ",
"                              S 3 1 l |                 = = l                                       ",
"                            A 2 1 l                     = = z                                       ",
"                             .[ [                       [ [ [                                       ",
"                                                                                                    ",
"                                                                                                    ",
"                                                                                                    ",
"                                                                                                    ",
"                                                                                                    ",
"                                                                                                    ",
"                                                                                                    ",
"                                                                                                    ",
"                                                                                                    ",
"                                                                                                    ",
"                                                                                                    "
};
