/* XPM */
static char *_5e5ba9348d845f0b8bcba7de5a5102f[] = {
/* columns rows colors chars-per-pixel */
"50 50 216 2 ",
"   c None",
".  c #0E071B",
"X  c #100A1F",
"o  c #120D23",
"O  c #141127",
"+  c #16132A",
"@  c #17142B",
"#  c #18162E",
"$  c #18172F",
"%  c #1A1932",
"&  c #1C1C36",
"*  c #241B2C",
"=  c #341E24",
"-  c #391F21",
";  c #221E34",
":  c #3E2122",
">  c #3F2122",
",  c #372128",
"<  c #2F2A3F",
"1  c #312839",
"2  c #571C27",
"3  c #501F2D",
"4  c #432323",
"5  c #452323",
"6  c #472424",
"7  c #4F2725",
"8  c #582A27",
"9  c #4A2132",
"0  c #482234",
"q  c #452D3A",
"w  c #4D393B",
"e  c #49393D",
"r  c #503E3F",
"t  c #593A3B",
"y  c #242743",
"u  c #282841",
"i  c #282C4A",
"p  c #2A2F4E",
"a  c #372A43",
"s  c #392941",
"d  c #312C48",
"f  c #2F314B",
"g  c #343145",
"h  c #30344F",
"j  c #3A394B",
"k  c #2E3353",
"l  c #2F3452",
"z  c #313756",
"x  c #313757",
"c  c #323959",
"v  c #333A5A",
"b  c #4D3946",
"n  c #543F40",
"m  c #663B43",
"M  c #3D4059",
"N  c #3B4465",
"B  c #3F486A",
"V  c #404349",
"C  c #464150",
"Z  c #42455D",
"A  c #4A465D",
"S  c #504455",
"D  c #5E4E5B",
"F  c #625657",
"G  c #785957",
"H  c #76585D",
"J  c #434964",
"K  c #4B4F64",
"L  c #414969",
"P  c #424C6E",
"I  c #535569",
"U  c #5C5B6D",
"Y  c #515B79",
"T  c #655C65",
"R  c #605F6B",
"E  c #6A5D68",
"W  c #5D6070",
"Q  c #6E6263",
"!  c #7E6463",
"~  c #7B6166",
"^  c #776D6E",
"/  c #646470",
"(  c #646572",
")  c #6B6B74",
"_  c #60667D",
"`  c #686C7F",
"'  c #716C71",
"]  c #8D5340",
"[  c #89574B",
"{  c #896955",
"}  c #8E635A",
"|  c #A96347",
" . c #BF6F4A",
".. c #A97450",
"X. c #B47854",
"o. c #8C6966",
"O. c #817170",
"+. c #847B7C",
"@. c #8F7C7F",
"#. c #AC7967",
"$. c #BE8967",
"%. c #AA8675",
"&. c #A58E79",
"*. c #C5875C",
"=. c #DB9D74",
"-. c #E69C69",
";. c #D2A27A",
":. c #6B738A",
">. c #757885",
",. c #7E7E85",
"<. c #7A7E8B",
"1. c #727C95",
"2. c #877F80",
"3. c #8F7F82",
"4. c #7D8192",
"5. c #7F8396",
"6. c gray52",
"7. c #86828A",
"8. c #80818F",
"9. c #83848D",
"0. c #8B8B8B",
"q. c #878997",
"w. c #8C8C92",
"e. c #888C96",
"r. c #848C9E",
"t. c #948C98",
"y. c #939393",
"u. c gray58",
"i. c #949499",
"p. c #989898",
"a. c #A78A85",
"s. c #BB9F92",
"d. c #B29F9B",
"f. c #818CA3",
"g. c #878CA1",
"h. c #8C94A1",
"j. c #8E98A8",
"k. c #939BA7",
"l. c #969CA7",
"z. c #9D9FA3",
"x. c #909AAC",
"c. c #999FA8",
"v. c #9BA1AB",
"b. c #9DA3AB",
"n. c #9FA0AD",
"m. c #9DA7B7",
"M. c #9FA8B7",
"N. c #92A1B9",
"B. c #99A7BE",
"V. c #9AA8BF",
"C. c #A0A5AD",
"Z. c #ACACAC",
"A. c #BBAFA4",
"S. c #A8A7B1",
"D. c #A4A8B7",
"F. c #AAAFB5",
"G. c #A7AFBB",
"H. c #ADB0B6",
"J. c #ADB1B9",
"K. c #AEB2B9",
"L. c #ADB4BF",
"P. c #BEB1B0",
"I. c #B3B2BA",
"U. c #CA9E83",
"Y. c #CE9D80",
"T. c #DDAB8B",
"R. c #CBAD99",
"E. c #DAAF95",
"W. c #C1ACA5",
"Q. c #C6B4A7",
"!. c #C0B4AD",
"~. c #E2BEA4",
"^. c #F4C397",
"/. c #F6CA9F",
"(. c #D0C0BB",
"). c #A1AEC3",
"_. c #A6B2C7",
"`. c #ABB6CA",
"'. c #ACB7CA",
"]. c #ADB9CC",
"[. c #AEBACC",
"{. c #B0B6C1",
"}. c #B7B7C0",
"|. c #B6BBC5",
" X c #BBBEC1",
".X c #B7BDC8",
"XX c #B2BCCD",
"oX c #B3BDCF",
"OX c #B5C0D1",
"+X c #B8C2D3",
"@X c #BBC5D5",
"#X c #C3C3C3",
"$X c gray78",
"%X c #CACACA",
"&X c #CBCBCB",
"*X c #C8CACE",
"=X c #D2C7C4",
"-X c #C0C9D8",
";X c #C6CEDD",
":X c #C7CFDD",
">X c #CDD4DF",
",X c #D7D7D7",
"<X c gray87",
"1X c #D7DDE7",
"2X c #DADBE0",
"3X c #DADFE8",
"4X c #E1E1E1",
"5X c #E2E2E2",
"6X c #E6E7EC",
"7X c #E9E9E9",
"8X c #EAEDF2",
"9X c #ECEFF4",
"0X c #EFF1F5",
"qX c #F3F3F3",
"wX c #F6F8FA",
"eX c white",
/* pixels */
"                                                                                                    ",
"                                                                                                    ",
"                                                                                                    ",
"                                                                                                    ",
"                                                                                                    ",
"                                                                                                    ",
"                                                                                                    ",
"                                                                                                    ",
"                                                                                                    ",
"                                                                                                    ",
"                                                                                                    ",
"                                                                                                    ",
"                                                                                                    ",
"                                                                                                    ",
"                                                &X&X&X&X&X&X&X XJ.J.J.J.J.J.J.J.J.J.J.J.J.J.J.      ",
"<X&X&X&X&X&X&X&X&X&X&X&X&X&X&X&X&X&X&X&X&X&X&X4XeXeXeXeXeXeXeXwX0X3X:X:X:X:X:X:X:X:X:XH.            ",
"$XeXeXeXeXeXeXeXeXeXeXeXeXeXeXeXeXeXeXeXeXeXeXeXeXeXeXeXeXeXeXeXeXwX0X3X:XH.                        ",
"  $XeXeXeXeXeXeXeXeXeXeXeXeXeXeXeXeXeXeXeXeXeXeXeX8X1X9XeXeXeX#X                                    ",
"      $XeXeXeXeXeXeXeXeXeXeXeXeXeXeXeXeXeXeXeXeXeX>XOX@X8.q.oXL.J.                                  ",
"          $XeXeXeXeXeXeXeXeXeXeXeXeXeX#X          C.V.` I f._.-X:X|.                                ",
"              $XeXeXeXeXeXS.i.                        e.f.N.V.W.T.T.                                ",
"                  $XeXeXS.g W                     J.J.M.N.d.Y.s.P.~.Q.                              ",
"                    w.U G ] @.x.k.          J.J..X:X:X`.d.=.-.{ V &.A.                              ",
"                    ,.t |  .a._.+X{.J.J.J..X:XoX).).).B.n.U.-.*...;.                                ",
"                        %. .a.[.:X:X:X:X:XoX).1.Y r.F.m.N.n.U.-.E.=X                                ",
"                              v.OX:X:XoX).:.J L g.2X7X*Xm.N.I.(.}.).G.                              ",
"                                v.).).:.M h z g.6XeXeXqX*Xm.V.).[.+X'.                              ",
"                      H                 ( i 5.6XeXeXeXeX,Xz.j.N.V.OX`.                              ",
"                    3.2 m               Z v D.eXeX4X&X&XZ.0.h.N.N.V.b.                              ",
"                      ~ 2 m H         Z p 5.6XeX4XZ.y.y.p.    l.N.c.                                ",
"                        ~ 2 2 m H E Z p p D o.! +.0.6.u.                                            ",
"                          ~ 2 2 2 3 9 s p q 7 : F 6.u.                                              ",
"                              ~ 2 2 2 3 9 } $.X.[ b                                                 ",
"                              7.a 0 2 2 2 #.^.R.t.A j                                               ",
"                              Z p d a 0 2 #./.!._ ; + j                                             ",
"                            Z p p p p d a S T 4.K . X + j                                           ",
"                          9.p p p p p v N v y f u o . O %                                           ",
"                          Z p p p p v B P l & % % # @ # %                                           ",
"                        Z p p p v N B P <.( % % % % % % )                                           ",
"                      Z p p v N B P P <.    R % % % % )                                             ",
"                    C p p v B P P P <.      e * % )                                                 ",
"                  w , < v B P P <.        w - = '                                                   ",
"                w 6 5 1 k z >.          w - - ^                                                     ",
"              2.6 8 O.                2.- - ^                                                       ",
"              2.: 4 n                   Q - r                                                       ",
"                                                                                                    ",
"                                                                                                    ",
"                                                                                                    ",
"                                                                                                    ",
"                                                                                                    "
};
