/* XPM */
static char *_f8362fe137a47e89fe4ffd62097d002[] = {
/* columns rows colors chars-per-pixel */
"50 50 207 2 ",
"   c None",
".  c #0E071B",
"X  c #0F081C",
"o  c #100A1F",
"O  c #1C0F1D",
"+  c #130F25",
"@  c #1C1121",
"#  c #151128",
"$  c #16132B",
"%  c #17142C",
"&  c #191831",
"*  c #1A1932",
"=  c #1E1F39",
"-  c #2B1C29",
";  c #371F22",
":  c #391F21",
">  c #3B2021",
",  c #3E2122",
"<  c #382024",
"1  c #36222A",
"2  c #2F2435",
"3  c #27263C",
"4  c #2A273C",
"5  c #322635",
"6  c #3E263C",
"7  c #571C27",
"8  c #541D29",
"9  c #422223",
"0  c #452323",
"q  c #4D2625",
"w  c #422B2D",
"e  c #4B2E2F",
"r  c #542926",
"t  c #582A27",
"y  c #482234",
"u  c #432539",
"i  c #5B2430",
"p  c #5C2832",
"a  c #483334",
"s  c #43373F",
"d  c #4C383A",
"f  c #633F37",
"g  c #753D3E",
"h  c #66423F",
"j  c #262742",
"k  c #282C4A",
"l  c #2A2F4E",
"z  c #2D2E4C",
"x  c #342E47",
"c  c #392941",
"v  c #313046",
"b  c #353447",
"n  c #3D3947",
"m  c #2B3150",
"M  c #2D3352",
"N  c #3C3C51",
"B  c #393C54",
"V  c #3E3C54",
"C  c #323858",
"Z  c #373F5F",
"A  c #423449",
"S  c #5E3E47",
"D  c #603841",
"F  c #3F444B",
"G  c #3A4364",
"H  c #3B4464",
"J  c #3C4466",
"K  c #424152",
"L  c #434255",
"P  c #504F5C",
"I  c #6B4956",
"U  c #605356",
"Y  c #625455",
"T  c #60565B",
"R  c #474C67",
"E  c #484D65",
"W  c #454D6A",
"Q  c #424C6E",
"!  c #48516E",
"~  c #5D5462",
"^  c #585863",
"/  c #5F5E6A",
"(  c #5A5C6D",
")  c #4F5875",
"_  c #535B74",
"`  c #545C78",
"'  c #7A5F64",
"]  c #6A6063",
"[  c #6E6763",
"{  c #65636B",
"}  c #6C6168",
"|  c #766168",
" . c #616172",
".. c #6C6479",
"X. c #736D78",
"o. c #7E7071",
"O. c #895241",
"+. c #8C5845",
"@. c #945844",
"#. c #A05D41",
"$. c #AE6545",
"%. c #A0694F",
"&. c #BF6F4A",
"*. c #A2704D",
"=. c #AE7352",
"-. c #8D6F6D",
";. c #92706E",
":. c #806B71",
">. c #857D7E",
",. c #8E7C7F",
"<. c #B2815D",
"1. c #AA8574",
"2. c #C58B63",
"3. c #D99364",
"4. c #C09071",
"5. c #D09D7E",
"6. c #E69C69",
"7. c #E2A378",
"8. c #606781",
"9. c #6B758F",
"0. c #7B7B83",
"q. c #70788E",
"w. c #6F7994",
"e. c #79849B",
"r. c gray52",
"t. c #868686",
"y. c #878A8F",
"u. c #8A8F99",
"i. c #8B929D",
"p. c gray57",
"a. c gray58",
"s. c #AD958A",
"d. c #A4979B",
"f. c #B89F95",
"g. c #818DA5",
"h. c #8F99AD",
"j. c #959CA7",
"k. c #909AAA",
"l. c #969BAA",
"z. c #909BAD",
"x. c #9A9FA8",
"c. c #929EB5",
"v. c #9A9FB0",
"b. c #9AA0AA",
"n. c #9EA1A9",
"m. c #9AA1AD",
"M. c #9DA0AF",
"N. c #97A1B4",
"B. c #9BA4B1",
"V. c #92A1B9",
"C. c #96A2B9",
"Z. c #95A4BB",
"A. c #9EA7B9",
"S. c #99A7BE",
"D. c #ACADAE",
"F. c #B4A5A4",
"G. c #A5ABB6",
"H. c #A8ADB6",
"J. c #A9AEB6",
"K. c #AEAFBA",
"L. c #AEB0B6",
"P. c #AFB1B6",
"I. c #AEB1B8",
"U. c #AFB4BB",
"Y. c #BDB7B4",
"T. c #CB9E83",
"R. c #C59E88",
"E. c #C1A28E",
"W. c #DCAD8F",
"Q. c #DFB796",
"!. c #D2B599",
"~. c #D9BA9D",
"^. c #E4B691",
"/. c #D7BEAF",
"(. c #C8BCBA",
"). c #D1BEB7",
"_. c #F5C79C",
"`. c #F6CA9F",
"'. c #D2C1BB",
"]. c #E3C2A4",
"[. c #A0ADC2",
"{. c #A4AEC0",
"}. c #A3B0C5",
"|. c #A7B3C7",
" X c #AAB6C9",
".X c #B2BDCF",
"XX c #B8C0CE",
"oX c #B6C0D1",
"OX c #BFC6D2",
"+X c #B9C3D4",
"@X c #BDC6D6",
"#X c #C0C0C0",
"$X c gray76",
"%X c gray80",
"&X c #C9CBD4",
"*X c #C0C9D8",
"=X c #C7CFDD",
"-X c #CDD0D9",
";X c #DBDCDD",
":X c #DCDFE4",
">X c #E7E7E7",
",X c #E9EAEC",
"<X c #EDEFF4",
"1X c #F1F1F1",
"2X c gray96",
"3X c gray98",
"4X c white",
/* pixels */
"                                                                                                    ",
"                                                                                                    ",
"                                                                                                    ",
"                                                                                                    ",
"                                                                                                    ",
"                                                                                                    ",
"                                                                                                    ",
"                                                                                                    ",
"                                                                                                    ",
"                                                                                                    ",
"                                                                                                    ",
"                                                                                                    ",
"#X                                                                                                  ",
",XP.                                                                                                ",
"  :XP.                                                                                              ",
"    :XI.P.                                                                                          ",
"      <X:XI.P.                                        I.P.                                          ",
"          <X:XI.P.                                     XXXu.{ j.b.I.P.                              ",
"              <X:XI.P.                                  h.L q.S.+X=XOXP.                            ",
"                  <X:XI.P.    0.                          q.V.Z.K.W.W.E.  P.                        ",
"                      <X:Xn.P n                       I.H.V.M.T.R.F./.Q.P.                          ",
"                         .~ O.+.1.s.            I.I.U.*X[.M.5.6.2.F [ ~.                            ",
"                        2 @.&.&.$.f ] / 0.  I.U.=X*X}.[.V.N.f.6.3.*.<.!.                            ",
"                            &.&.#.O @ * N U.=X*X}.C.9.H.G.V.N.f.6.7.'.Y.                            ",
"                                    X 4 v.=X*Xc.) w.&X>X;XG.V.A.).(.}.{.P.                          ",
"                                      l.=X*Xc.! ` -X4X4X3X;XG.Z.}.|.oX.XB.                          ",
"                        ' ,.        m.=X*Xc.W R -X4X4X4X4X1XD.i.V.Z. X@Xk.                          ",
"                        7 p ,.      Z.}.c.W M 8.4X4X2X%X%X#Xp.y.V.V.Z.[.k.                          ",
"                          7 p ' :.x.    W l R -X4X2X#Xa.a.p.      V.V.z.                            ",
"                            7 7 i I | ( l l V ;.-.o.p.t.t.                                          ",
"                              7 7 7 8 y u l x t 9 a t.t.                                            ",
"                                  7 7 7 8 y D 4.=.%.S ^                                             ",
"                                  c 6 7 7 7 g _.^.d...3 0.                                          ",
"                                ( l z c 6 7 g `.].g.v + 3 0.                                        ",
"                              ( l l l l z c A } X.e.. X + 3 0.                                      ",
"                              l l l l l M G Z k j B # . o * K                                       ",
"                            ( l l l l M J Q H = * * * # % * K                                       ",
"                          ( l l l M G J Q _   * * * * * * b                                         ",
"                        ( l l M G J Q Q _       * * * * b                                           ",
"                      T l l M J Q Q Q _       U - * b                                               ",
"                    Y < 5 M J Q Q _         Y : ; s                                                 ",
"                  Y , q 1 m C E           Y : : d                                                   ",
"                  , r h                   : : d                                                     ",
"                  > 0 e >.                  : w >.                                                  ",
"                                                                                                    ",
"                                                                                                    ",
"                                                                                                    ",
"                                                                                                    ",
"                                                                                                    ",
"                                                                                                    "
};
