/* XPM */
static char *cd7110a9a58c4107972e82f93f707cdeoF0knQ4baeFCbDxA[] = {
/* columns rows colors chars-per-pixel */
"50 50 213 2 ",
"   c #63AB3F",
".  c #63AC3F",
"X  c #62AB3E",
"o  c #62AA3E",
"O  c gray24",
"+  c #272727",
"@  c #353535",
"#  c #E49B69",
"$  c #3C3B3B",
"%  c #64AD3F",
"&  c #62A93E",
"*  c #3A3A3A",
"=  c #393939",
"-  c #373838",
";  c gray11",
":  c #5D5D5E",
">  c #262526",
",  c #444342",
"<  c #5FA23E",
"1  c #2F2F2F",
"2  c #60A53E",
"3  c gray16",
"4  c #F5CBA2",
"5  c #222222",
"6  c gray20",
"7  c #34402E",
"8  c #59943C",
"9  c #3F3F3F",
"0  c #66AC43",
"q  c gray27",
"w  c #515252",
"e  c #4A4B4B",
"r  c #313131",
"t  c #6CAF48",
"y  c #F9E6CE",
"u  c #F6CA9F",
"i  c #2D2D2D",
"p  c #3A4D30",
"a  c #4F4F4E",
"s  c #426331",
"d  c #474749",
"f  c #61A83E",
"g  c #63AC3E",
"h  c #4F7C38",
"j  c #E89E6A",
"k  c #F8DDBE",
"l  c #685243",
"z  c #F9E3C8",
"x  c #4A7335",
"c  c #323231",
"v  c #456734",
"b  c #725A48",
"n  c #575858",
"m  c #98755B",
"M  c #565452",
"N  c #4B7834",
"B  c #5B973D",
"V  c #5B5B5C",
"C  c #4E6D3F",
"Z  c #37482F",
"A  c #EEBC90",
"S  c #3F5331",
"D  c #466E33",
"F  c #F4C79B",
"G  c #2C3229",
"H  c #F7D5B1",
"J  c #F7CEA6",
"K  c #5D4D40",
"L  c #4B6042",
"P  c #DD9868",
"I  c #455A3B",
"U  c #424E3C",
"Y  c #66A848",
"T  c #5B8A40",
"R  c #68975A",
"E  c #5A4639",
"W  c #619F3F",
"Q  c #567349",
"!  c #508237",
"~  c #C28A62",
"^  c #63984A",
"/  c #4C663F",
"(  c #FBE8D1",
")  c #74B050",
"_  c #957056",
"`  c #AE8363",
"'  c #E7B78C",
"]  c #B1B4BA",
"[  c #A87858",
"{  c #443934",
"}  c #856D5F",
"|  c #4B4847",
" . c #74A561",
".. c #5B9140",
"X. c #54843D",
"o. c #64A44A",
"O. c #7B6353",
"+. c #B68460",
"@. c #8A664D",
"#. c #456A32",
"$. c #85BC67",
"%. c #282C26",
"&. c #79B55D",
"*. c #93969A",
"=. c #616365",
"-. c #6A7279",
";. c #71896B",
":. c #7CAB62",
">. c #F9E0C3",
",. c #E9DABA",
"<. c #96B663",
"1. c #DDE2E4",
"2. c #7B6759",
"3. c #5C9A3D",
"4. c #EDB080",
"5. c #3A342E",
"6. c #C2D19C",
"7. c #F5E5CC",
"8. c #5E5C47",
"9. c #313B2C",
"0. c #B1D1A5",
"q. c #9EC27A",
"w. c #D5A67F",
"e. c #3F5932",
"r. c #C2875E",
"t. c #F3C395",
"y. c #878A8A",
"u. c #537B46",
"i. c #D09467",
"p. c #A5B49E",
"a. c #5C4B3F",
"s. c #90BE71",
"d. c #6BAB48",
"f. c #CE8E61",
"g. c #E8A271",
"h. c #9F7250",
"j. c #A9CA92",
"k. c #A0BE74",
"l. c #D9CE9F",
"z. c #AABF79",
"x. c #647D80",
"c. c #554A42",
"v. c #6FA852",
"b. c #657493",
"n. c #E1AC7C",
"m. c #CDD9CF",
"M. c #535952",
"N. c #A8AAAB",
"B. c #84B457",
"V. c #6CA057",
"C. c #715F52",
"Z. c #E9A674",
"A. c #D7D6B0",
"S. c #8C8861",
"D. c #384436",
"F. c #63A940",
"G. c #F6D0AA",
"H. c #9CA0A1",
"J. c #C2D5C0",
"K. c #8FA08E",
"L. c #C08E69",
"P. c #BFC29B",
"I. c #F3E3C8",
"U. c #75937C",
"Y. c #99C783",
"T. c #80AA4A",
"R. c #787C7D",
"E. c #D8DBE1",
"W. c #8B9753",
"Q. c #A9B394",
"!. c #649066",
"~. c #A8C1AC",
"^. c #BE9572",
"/. c #3E483A",
"(. c #B5BCC4",
"). c #8AAF81",
"_. c #F7D9B6",
"`. c #C9A873",
"'. c #B4AE6B",
"]. c #96A0B2",
"[. c #D9C18B",
"{. c #CCCECF",
"}. c #E8E1C1",
"|. c gray97",
" X c #5E6B6D",
".X c #62A242",
"XX c #89B075",
"oX c #807C47",
"OX c #9D8254",
"+X c #F0B686",
"@X c #759469",
"#X c #BCC3C2",
"$X c #DEB37F",
"%X c #7F7162",
"&X c #D89F66",
"*X c #CBE3BF",
"=X c #A7A457",
"-X c #C7A381",
";X c #696A44",
":X c #3C424F",
">X c #9AA553",
",X c #554438",
"<X c #629B54",
"1X c #474C57",
"2X c #E9EDF2",
"3X c #431F21",
"4X c #5F2A2F",
"5X c #63633D",
"6X c #D1BDAF",
"7X c #7E9C48",
"8X c #8C7767",
"9X c #BAB270",
"0X c #734145",
/* pixels */
"                                                                                                    ",
"                                                                                                    ",
"                                                                                                    ",
"                                                                                                    ",
"                                                                                                    ",
"                                                                                                    ",
"                                                                                                    ",
"                          F.    o                                                                   ",
"                        R R g   &.t X                                                               ",
"                    o.!.x.<X  $.J.&.X       . % % . 2 2 2 f f 2 2 2 . .                             ",
"              g o.!.x.b.;.&.0.m.~.0 % . f f ..! ! h S p p I C L L / X.B o .                         ",
"            g o.x.b.b.].m.1.E.~.v.f ..N p p 9.6 9 , | a C.2.} } } } 2.8.Q B o .                     ",
"            o u.:X1X] |.1.(.).^ x p G 3 1 * q M 2.m ~ +.P # # # # # P L.m 8.C 8 o                   ",
"          o N G 1 : 1.2X] U.B p + > 5 c , w O.` P # j j # # # j Z.4.A A A w.m 8.C < .               ",
"        . 8 9.- a V *.].-.a h s 3 + + 1 q d | O.~ # j # # # # 4.F u 4 4 4 u t.w.b / < .             ",
"        % D 6 e 9 O - @ e * #.2 s 3 5 > 6 q b O.C.@.r.# j # g.t.4 u u 4 J J J 4 w.b L < .           ",
"          v $ - > 3X@ q @ + 7 :.) e.5 ; ; i c.+.i._ l @.~ # Z.F u u G.k z z z k H `.8.u.            ",
"  d.0 . ..U d @ 0X4X$ w - > O {.*X..G 5 ; ; @ O.P # +.b K _ g.F u 4 k y y y y A.q.) W C 3..         ",
"XXp.:.X.M.=.{.] { $ d 6 + + * N.j.Y Z 5 ; ; i c.f.j 4.n.+.K _ ' 4 H y y y y I.;.D o % X.h .         ",
"p.p.^ /.r q N.|.8XK , { { i = e  .Y x + ; ; > O [ +Xu 4 t.^.K m A k ( I.7.( A.^ D f . < ..          ",
":.).v.C = c.6X}.9X7X5X[ [ = $ R.1.Q.Q + ; ; 5 = m F _.k H 4 ^.a.` 4 P.$.q.6.6.0                     ",
"    . .., [ [.B.X d.`.g.[ 9 * -.E.*.9 > ; ; i $ _ G.y y y z [.;Xl W.W o X t s.0                     ",
"      2 T '.B.X X <.F n.l e $ d y.q > > ; ; 6 $ m H ( ( ,.Q.v.< / I < .     .                       ",
"        % 0 X   s.,.J ` , w d ] N.6 > + 3 * q M ~ 4 }.6.:.Z ! % 2 / X..                             ",
"              <.,.>.' l a d , (.] q * | w e | _ # n.<.0 & N T % . 8 8 .                           . ",
"          X ) l.k J ` , w = * n V V V M | a.@.r.~ W.& t &.0 f     . .                           o < ",
"            z.>.>.' l O q c , n w e q r 5.b E 5.5.7 s ;.m.$.o o                                 f x ",
"        X ) l.H 4 ` i 1 r 3 1 - 6 3 + > + + 3 r - - r - : T s.Y.0 o o                       . f h x ",
"        o k.z z A K 3 r r 3 + 6 = @ 1 3 + i - O O $ @ 6 @ U K.J.) Y.$.  t t               . f D 7 8 ",
"        o z.k _.' ,X9 n M 9 1 $ O O O = 6 $ O O O $ @ 3 1 O q M.Q #Xj.Y 0.0.% .     . %   3.s %.v   ",
"        o z.>.k ' a.w : : a $ $ O O O O O $ * 9 q q 9 c 3 @ - * O w M.I R.K.T 8 & o B T x D.9.v < . ",
"        o q.7.z F _ q : : n O - O * @ = - 1 - a V V e * 1 b l q = = $ O O 9 9 /.L L U O = s B       ",
"        X t l.H J L.{ a : M @ 1 6 i { E 5.i e : : : a $ r OX$X-X%XM = - = $ * @ @ @ c 7 #.2 %       ",
"          o k.I.z A l r q O 3 K h.h.f.P @.$ n : : V d @ Z W T.<.k.P.S.S.U Z Z 7 7 v h 8 o           ",
"            t j.,.u i.E + + > E f.j j &Xh.$ V : : w O r v D x f . t t t 2 < < < < & % .             ",
"            X 0 B.'.i.r.E + i 3 b =X>XT.x %., n e $ r 3 G + 7 2   X X X   . . . .                   ",
"                g 2 S l oXp = @ h . X X f N s @ 1 G p S + + s &                                     ",
"          . % % < #.5 %.! I = S < . . % % % N 5 ; s W C @ 7 8 .                                     ",
"        o W h N Z %.+ 7 e.6 7 B . & 8 N N D G 5 %.C v c @ X..                                       ",
"      . ^ U - 5 9 w =.e @ 3 v o 0 u.D.1 5 + e w =., 1 3 s 2                                         ",
"      d.U. X=.7 *.y.H.I S e.3.g  .-.-.d + a H.*.y.S p #.2 .                                         ",
"      d.Y V.R .X .V. .2 & o .   Y o.R Q Q ^ @X;.R f f                                               ",
"              . X g               g   F.o g o o                                                     ",
"                                                                                                    ",
"                                                                                                    ",
"                                                                                                    ",
"                                                                                                    ",
"                                                                                                    ",
"                                                                                                    ",
"                                                                                                    "
};
