/* XPM */
static char *d5b575d3dbf04c99f4e197f235c883af8qcZpAbbAJg05dIz[] = {
/* columns rows colors chars-per-pixel */
"50 50 148 2 ",
"   c None",
".  c #0E1619",
"X  c #141D1E",
"o  c #1F2E27",
"O  c #293C2F",
"+  c #720E27",
"@  c #6F1C2D",
"#  c #70152A",
"$  c #6E202F",
"%  c #6E2431",
"&  c #6C2B34",
"*  c #6B3237",
"=  c #6A3739",
"-  c #693B3B",
";  c #2B4333",
":  c #214738",
">  c #244B3A",
",  c #2A4F3D",
"<  c #364E3B",
"1  c #2C533F",
"2  c #3A553E",
"3  c #374844",
"4  c #3C5740",
"5  c #335A43",
"6  c #3D5941",
"7  c #366445",
"8  c #3D6549",
"9  c #3E6A49",
"0  c #42504B",
"q  c #415E4B",
"w  c #504952",
"e  c #5F4C5A",
"r  c #664C42",
"t  c #655245",
"y  c #645847",
"u  c #645C49",
"i  c #436447",
"p  c #436A4C",
"a  c #4B6D4D",
"s  c #55684A",
"d  c #4E714F",
"f  c #4C7652",
"g  c #4D7954",
"h  c #517652",
"j  c #5F7755",
"k  c #547D56",
"l  c #5E7C57",
"z  c #62644D",
"x  c #61694F",
"c  c #616C50",
"v  c #607052",
"b  c #60705D",
"n  c #647E5E",
"m  c #697D5E",
"M  c #74795A",
"N  c #7C7A5D",
"B  c #6A4561",
"V  c #754E67",
"C  c #736D65",
"Z  c #7A626A",
"A  c #EF3E6D",
"S  c #876D56",
"D  c #8C6A56",
"F  c #827057",
"G  c #AC695F",
"H  c #81466D",
"J  c #844A6F",
"K  c #84576F",
"L  c #8A576E",
"P  c #80586F",
"I  c #8E4676",
"U  c #874970",
"Y  c #8D4A75",
"T  c #8E4878",
"R  c #914677",
"E  c #934A74",
"W  c #9D4B72",
"Q  c #8E5174",
"!  c #8E5C72",
"~  c #915173",
"^  c #A64D6F",
"/  c #AB4E6F",
"(  c #B14F6D",
")  c #B94F6C",
"_  c #B65F64",
"`  c #BE5469",
"'  c #A44D70",
"]  c #9B726B",
"[  c #8B6471",
"{  c #8C6872",
"}  c #AA6960",
"|  c #A26F6A",
" . c #B56561",
".. c #B96261",
"X. c #BE6D65",
"o. c #C75567",
"O. c #C15866",
"+. c #C35269",
"@. c #C95268",
"#. c #D45565",
"$. c #578158",
"%. c #5C855B",
"&. c #5D895D",
"*. c #62835C",
"=. c #648C5E",
"-. c #688C5F",
";. c #6A8D60",
":. c #728C64",
">. c #6F9162",
",. c #729364",
"<. c #759A63",
"1. c #7F9E67",
"2. c #7EA567",
"3. c #87866C",
"4. c #858B6C",
"5. c #9B8A68",
"6. c #85926B",
"7. c #819D69",
"8. c #9D9166",
"9. c #82A267",
"0. c #82A967",
"q. c #82A468",
"w. c #93A770",
"e. c #95A971",
"r. c #9FAF75",
"t. c #9DAE74",
"y. c #A0B075",
"u. c #A6B478",
"i. c #ABB579",
"p. c #ABB67A",
"a. c #B6BD7E",
"s. c #C0C482",
"d. c #C4C683",
"f. c #CCCB86",
"g. c #CDCC87",
"h. c #E1D88E",
"j. c #E1D98F",
"k. c #E8DD91",
"l. c #EEE194",
"z. c #EFE194",
"x. c #F3E395",
"c. c #F3E495",
"v. c #F6E596",
"b. c #F5E596",
"n. c #F7E697",
"m. c #F9E798",
"M. c #FFEC9B",
"N. c #FCEA99",
/* pixels */
"              > >                                                 9.              %.%.%.            ",
"              > >                                                 q.          %.%.%.%.              ",
"              > >                                                 6.        %.%.%.                  ",
"              > > > >                                           4.!       %.%.%.                    ",
"              > > > >                     %.%.%.%.%.%.%.      0.4.Y     %.%.%.%.                    ",
"              > > > > >                 %.%.%.%.%.%.%.%.%.    0.4.Q     %.%.%.%.                    ",
"              > > > > > > >       %.%.%.%.%.%.%.%.%.%.%.%.=.1.q.4.Q     %.%.%.%.                    ",
"              > > > > > > > : 5 $.%.%.%.%.%.%.%.%.%.%.%.=.<.2.3.[ Y     %.%.%.%.%.                  ",
"              > > > > > > > 1 p %.%.%.%.%.%.%.%.%.%.%.=.<.9.4.[ I Y     %.%.%.%.%.%.                ",
"              > > > > > > > a %.%.%.%.%.%.%.%.%.%.%.=.<.q.6.! E E E       %.%.%.%.%.%.              ",
"              > > > > > > > f &.%.%.%.%.%.%.%.%.%.=.<.2.8.X.+.+.+.+.#.    %.%.%.%.%.%.              ",
"              > > > > > , 5 g %.%.%.%.%.%.%.%.%.=.:.3.3.| +.+.+.O. . .}   %.%.%.%.%.%.              ",
"              > > > > > 5 k %.%.%.%.%.%.%.%.%.%.<.3.~ Y E E E E L m *.*.%.%.%.%.%.%.%.              ",
"              > > > > > 5 $.%.%.%.%.%.%.%.%.=.<.2.5.` W I Y Y I P %.%.%.%.%.%.%.%.%.%.              ",
"                > > > > 5 $.%.%.%.%.%.%.%.%.=.9.6.] ` ( / ^ E I P %.%.%.%.%.%.%.%.%.%.              ",
"                  > > > 5 $.%.%.%.%.%.%.%.%.=.1.{ Y E +.#.o.W E L m %.%.%.%.%.%.%.%.%.              ",
"                  > > > 5 $.%.%.%.%.%.%.%.%.=.1.{ I E W ' / +.@.o...N %.%.%.%.%.%.%.%.              ",
"                  > > > 5 $.%.%.%.%.%.%.%.%.=.1.{ I Y Y T E ) _ G } M %.%.%.%.%.%.%.%.              ",
"                    > > 5 $.%.%.%.%.%.%.%.%.=.1.{ R Y U J J Y C %.%.%.%.%.%.%.%.%.%.%.              ",
"                          $.%.%.%.%.%.%.%.%.=.1.{ R U w 3 0 b *.%.%.%.%.%.%.%.%.%.%.                ",
"                          r.,.%.%.%.%.%.%.%.=.1.{ H e q 7 9 $.&.%.%.%.%.%.%.%.%.%.                  ",
"      D                   c.e.$.%.%.%.%.%.%.=.1.{ B 1 f %.%.k $.%.%.%.%.%.%.%.%.%.                A ",
"      D                   v.e.$.%.%.%.%.%.%.=.7.{ B , f =.k 5 a %.%.%.%.%.%.%.%.              A A   ",
"      D D               M.v.w.$.%.%.%.%.%.%.=.>.[ V p k k p 8 f %.%.%.%.%.%.%.%.%.                  ",
"      D S F   %.%.%.,.s.M.v.w.$.%.%.%.%.%.%.%.%.Z Z %.%.p 1 k %.%.%.%.%.%.%.%.%.%.%.  %.            ",
"      D M *.%.%.$.,.f.x.N.v.w.$.%.%.%.%.%.%.%.%.n n %.%.p 1 k %.%.%.%.%.%.%.%.%.%.%.%.%.            ",
"      M *.%.%.%.$.;.y.h.l.i.s 6 %.%.%.%.%.%.%.%.%.%.%.%.  5 $.%.%.%.%.%.%.%.%.%.%.%.%.%.            ",
"      %.%.%.%.%.%.%.%.u.s.*.; O a $.%.%.%.%.%.%.%.%.%.      %.%.%.%.%.%.%.%.%.%.%.%.%.%.            ",
"      %.%.%.%.%.%.%.%.-.;.%.k 2 o a &.%.%.%.%.%.%.%.%.        %.%.%.%.%.%.%.%.%.%.%.%.              ",
"      %.%.%.%.%.&.k < i %.%.&.h 2 h %.%.%.%.%.%.%.%.%.%.                  %.%.%.%.%.%.              ",
"      %.%.%.%.%.k 6 X < &.%.%.%.%.%.%.%.%.%.%.%.%.%.%.%.%.                %.%.%.%.%.%.              ",
"      %.%.%.%.%.6 X . 2 &.%.%.%.%.%.%.%.%.%.%.%.%.%.%.%.%.%.%.            %.%.%.%.%.%.              ",
"      %.%.%.%.%.a 2 4 d %.%.%.%.%.%.%.%.%.%.%.%.%.%.%.%.%.%.%.%.        $.%.%.%.%.%.%.              ",
"      %.%.%.%.%.%.&.&.%.%.%.%.%.%.%.%.%.%.%.%.%.%.%.%.%.%.%.%.%.%.      7.=.%.%.%.%.$.              ",
"  %.%.%.%.%.%.%.%.%.%.%.%.%.%.%.%.%.%.%.%.    %.%.%.%.%.%.%.%.%.%.      h.7.k   %.%.=.              ",
"%.%.%.%.%.%.%.%.%.%.&.&.&.%.%.%.%.%.%.%.%.        %.%.%.%.%.%.%.%.      m.i.      p.d.              ",
"%.%.%.%.%.%.%.%.&.%.x u x %.%.%.%.%.%.%.%.          %.%.%.%.%.%.%.      m.        M.N.              ",
"%.%.%.%.%.%.%.%.%.v & @ = l %.%.%.%.%.%.            %.%.%.%.%.                    m.m.              ",
"%.%.%.%.%.&.%.r = * # - z   %.%.%.%.%.              %.%.%.%.%.                                      ",
"%.%.%.%.&.l y % + # = z       %.%.%.              %.%.$.%.%.%.                                      ",
"%.%.%.%.%.y @ # # & v                         ;.=.%.%.-.=.%.                                        ",
"  %.%.%.t % # # = x                         l.f.7.$.-.a.r.%.                                        ",
"    j y & + # # r &.                        N.N.i.g ,.k.g.%.                                        ",
"      @ @ % % $ r %.                          m.      m.v.                                          ",
"        z c c c v                                                                                   ",
"          &.&.&.                                                                                    ",
"                                                                                                    ",
"                                                                                                    ",
"                                                                                                    ",
"                                                                                                    "
};
